# xmcd CD database file
#
# Track frame offsets:
#	150
#	22540
#	38710
#	60383
#
# Disc length: 1218 seconds
#
# Revision: 0
# Processed by: cddbd v1.5.1PL0 Copyright (c) Steve Scherf et al.
# Submitted via: CDex 1.51
#
DISCID=1e04c004
DTITLE=Coleen Rider - In a world like this
DYEAR=2001
DGENRE=Rhythmic Soul
TTITLE0=Drove her crazy (in a world like this)
TTITLE1=Deep eyes
TTITLE2=Fraidy cat
TTITLE3=Chilling revelation
EXTD=YEAR: 2001
EXTT0=
EXTT1=
EXTT2=
EXTT3=
PLAYORDER=
